# xmcd
#
# Track frame offsets:
#      150
#      11758
#      25842
#      38659
#      54084
#      66033
#      80414
#      97379
#      110276
#      121086
#      136609
#      145796
#      162298
#      174244
#      184839
#      199073
#      212106
#      223913
#      250714
#      268703
# 
# Disc length: 3737 seconds
#
# Revision: 11
# Processed by: cddbd v1.4PL0 Copyright (c) Steve Scherf et al.
#
# Submitted via: FreeRIP 1.21
#
DISCID=130e9714
DTITLE=Charles Aznavour - 40 chansons d'or CD 2
DYEAR=1996
DGENRE=Blues
TTITLE0=Sur ma vie
TTITLE1=J'en déduis que je t'aime
TTITLE2=Parce que
TTITLE3=Je m'voyais déjà
TTITLE4=Que c'est triste Venise
TTITLE5=Il faut savoir
TTITLE6=L'amour c'est comme un jour
TTITLE7=Et pourtant
TTITLE8=Hier encore
TTITLE9=Paris au mois d'août
TTITLE10=Après l'amour
TTITLE11=Qui?
TTITLE12=Le temps
TTITLE13=For me formidable
TTITLE14=Avec
TTITLE15=Plus bleu que tes yeux
TTITLE16=L'amour et la guerre
TTITLE17=Les plaisirs démodés
TTITLE18=Mourir d'aimer
TTITLE19=Jezebel
EXTD=ID3G: 0
EXTT0=
EXTT1=
EXTT2=
EXTT3=
EXTT4=
EXTT5=
EXTT6=
EXTT7=
EXTT8=
EXTT9=
EXTT10=
EXTT11=
EXTT12=
EXTT13=
EXTT14=
EXTT15=
EXTT16=
EXTT17=
EXTT18=
EXTT19=
PLAYORDER=
